inDegrees=no
num_controls=7
num_derivatives=13
num_iterations=128
num_multipliers=7
num_parameters=0
num_slacks=7
num_states=26
objective=0.516810
objective_accelerations=0.039118
objective_balance=0.002183
objective_effort=0.043343
objective_height=0.420517
objective_ligament=0.011649
solver_duration=1701.570969
status=Solve_Succeeded
success=true
DataType=double
version=3
OpenSimVersion=4.5
endheader
time	/jointset/ground_pelvis/pelvis_tilt/value	/jointset/ground_pelvis/pelvis_tx/value	/jointset/ground_pelvis/pelvis_ty/value	/jointset/hip_l/hip_flexion_l/value	/jointset/hip_l/hip_adduction_l/value	/jointset/hip_l/hip_rotation_l/value	/jointset/back/lumbar_extension/value	/jointset/patellofemoral_l/patellar_flexion_l/value	/jointset/knee_l/knee_flexion_l/value	/jointset/knee_l/knee_adduction_l/value	/jointset/knee_l/knee_rotation_l/value	/jointset/ankle_l/ankle_angle_l/value	/jointset/subtalar_l/subtalar_angle_l/value	/jointset/ground_pelvis/pelvis_tilt/speed	/jointset/ground_pelvis/pelvis_tx/speed	/jointset/ground_pelvis/pelvis_ty/speed	/jointset/hip_l/hip_flexion_l/speed	/jointset/hip_l/hip_adduction_l/speed	/jointset/hip_l/hip_rotation_l/speed	/jointset/back/lumbar_extension/speed	/jointset/patellofemoral_l/patellar_flexion_l/speed	/jointset/knee_l/knee_flexion_l/speed	/jointset/knee_l/knee_adduction_l/speed	/jointset/knee_l/knee_rotation_l/speed	/jointset/ankle_l/ankle_angle_l/speed	/jointset/subtalar_l/subtalar_angle_l/speed	/forceset/tau_hip_flexion_l	/forceset/tau_hip_adduction_l	/forceset/tau_hip_rotation_l	/forceset/tau_knee_flexion_l	/forceset/tau_ankle_angle_l	/forceset/tau_subtalar_angle_l	/forceset/tau_lumbar_extension	lambda_cid13_p0	lambda_cid13_p1	lambda_cid13_p2	lambda_cid13_p3	lambda_cid13_p4	lambda_cid13_p5	lambda_cid14_p0	/jointset/ground_pelvis/pelvis_tilt/accel	/jointset/ground_pelvis/pelvis_tx/accel	/jointset/ground_pelvis/pelvis_ty/accel	/jointset/hip_l/hip_flexion_l/accel	/jointset/hip_l/hip_adduction_l/accel	/jointset/hip_l/hip_rotation_l/accel	/jointset/back/lumbar_extension/accel	/jointset/patellofemoral_l/patellar_flexion_l/accel	/jointset/knee_l/knee_flexion_l/accel	/jointset/knee_l/knee_adduction_l/accel	/jointset/knee_l/knee_rotation_l/accel	/jointset/ankle_l/ankle_angle_l/accel	/jointset/subtalar_l/subtalar_angle_l/accel	gamma_cid13_p0	gamma_cid13_p1	gamma_cid13_p2	gamma_cid13_p3	gamma_cid13_p4	gamma_cid13_p5	gamma_cid14_p0
0.5	-0.1194298000456651	-0.05495540329871629	0.8266058421412522	0.8822105695711357	-0.3236296959013309	-0.1260055750636319	-0.7787032961412754	0.7778273288782895	0.7778273288783041	-0.1103270451518049	-0.1745083203129481	0.0684328945236424	-0.007679885730824924	-0.2028244789800909	-0.2058985613710611	-0.332714236341937	1.474923544239569	-0.04129141644841792	0.4519250299952476	-0.8410147438829332	1.419232226026494	1.4192322260265	0.1319946090484625	0.0003307532882969847	0.2373977427574049	0.03019990042130949	-0.2820542508196496	0.01973892398354582	-0.002970921082025779	-0.2053189041850968	0.1104636721360305	0.05170718431173235	0.3298757290594872	-8.930450639742194	-22.4275418316575	4.874331396739516	-9.157774310469922	-702.4287703211008	-78.6111566233311	-15.28177153970999	0.3192724766443945	0.6449651068825918	-0.1302314161435852	-1.377112041984096	0.2386096773283113	-0.377075371580621	1.687086694817	-0.9486015859125958	-0.9486015859125981	-0.1777397465340318	-0.007608922949377803	0.08086781837479962	0.2890069377921486	-3.261028411626966e-08	-5.922036102821807e-07	-1.058010889028448e-07	-8.689636193894796e-08	-6.369184084268562e-08	-5.77797517290908e-08	-7.090423977942227e-08
0.51	-0.1214413882316761	-0.05698197670002841	0.8232729376063087	0.8968882920592274	-0.3240311585570882	-0.1215068726519864	-0.7870284189133281	0.7919701285292484	0.7919701285292494	-0.1090162534625053	-0.1745067583157144	0.07081037935839617	-0.007364088858170355	-0.1994172991982634	-0.1994001532358529	-0.3337893426676533	1.460360864651559	-0.03901517732520607	0.4477494137115598	-0.8239484761799321	1.409128607669326	1.40912860766934	0.1301448537912158	-3.814578225435527e-05	0.2380658930697872	0.03293613984413059	-0.2886914198182313	0.02020160743229291	-0.003172873959291674	-0.2075318580425051	0.1104784656202216	0.05212025118376683	0.3362133135071821	-9.140363944344625	-22.52857347024759	4.842911147883092	-9.214725845571575	-706.295630742835	-78.46890963826566	-14.76763695651876	0.3628184097310354	0.6546562894998535	-0.08456315009609855	-1.534859905239425	0.2201105506263972	-0.4477697676266627	1.725596960193172	-1.071092619447049	-1.071092619446167	-0.1915319097217844	-0.05450665409716481	0.05476739936878844	0.2625362002563082	-5.354785028208306e-08	-4.681845641387179e-07	6.978323360118969e-08	-5.313718332731317e-08	-7.90114223452478e-08	-5.002701815270534e-08	-7.68613384785642e-08
0.52	-0.123416629083713	-0.05894309049545646	0.819931599426246	0.9114125849538328	-0.3244102629174515	-0.1170519194053505	-0.7951810389779205	0.80600592186487	0.8060059218648575	-0.1077245470246586	-0.1745094805601842	0.07319354144861352	-0.007021608840141736	-0.1955550121852715	-0.1928066401942478	-0.334400965365788	1.44423762554235	-0.03681975736962895	0.4431751969933196	-0.8065142023908711	1.397830962959028	1.397830962959046	0.1281775587578968	-0.0005260950523758383	0.2385331938501232	0.03553652949612041	-0.2953285888168131	0.02066429088104	-0.00337482683655763	-0.2097448118999135	0.1104932591044126	0.05253331805580121	0.3425508979548769	-9.352877153060016	-22.63013529721666	4.812700934175397	-9.30012230231554	-710.2277771302686	-78.34483013919053	-14.25022054199843	0.4102939228772821	0.663986088161965	-0.03753469062729317	-1.6892239462237	0.2224458438013682	-0.4567954584911156	1.760687912028969	-1.187406856538819	-1.187406856538822	-0.201247701748529	-0.03141896286380942	0.04069791196553493	0.261836983625894	-9.751592051729709e-08	-2.529813879650822e-07	4.220583738496724e-07	1.35184030693987e-08	-1.163496659559125e-07	-3.81309468230833e-08	-9.258721660052208e-08
0.53	-0.1253510424778475	-0.06083789452880856	0.8165865085569027	0.9257677992685853	-0.3247680732017387	-0.1126419304405197	-0.8031577558236033	0.8199224065404705	0.8199224065404711	-0.1064553647195431	-0.1745157570745669	0.07558009683413412	-0.006654219694012788	-0.1912592375997652	-0.1861484383981191	-0.334534535096611	1.42654385423899	-0.03476357684391259	0.438869820429436	-0.788795592670016	1.385238166563154	1.385238166563164	0.1255430531650753	-0.0006702106245333008	0.238722842168638	0.03790065826609074	-0.3015967223055105	0.02101811759446625	-0.00357732773193662	-0.2121604275478678	0.1104719632012512	0.05284711413282317	0.3485188273431015	-9.584283059803495	-22.68302266450812	4.77215692216698	-9.209635858767697	-714.1168684043505	-78.1826457561715	-13.73007700720168	0.4494709584691685	0.6676061429302306	0.01110570429413099	-1.848677249324527	0.1939462823183765	-0.4104204505413616	1.782483613465448	-1.329366701352169	-1.32936670135361	-0.311934061401523	0.003063324110199906	-0.0001605152278554636	0.2175561266952689	-1.199442111042505e-07	-1.157047141350817e-07	6.237990867798334e-07	5.175360407826578e-08	-1.298564632583272e-07	-2.373518384268895e-08	-9.991411497451062e-08
